# xmcd CD database generated by RipIT
#
# Track frame offsets:
# 150
# 19724
# 35571
# 52733
# 83890
# 101815
# 122857
# 150168
# 166293
#
# Disc length: 2391 seconds
#
# Revision: 0
# Processed by: cddbd v1.5.1PL0 Copyright (c) Steve Scherf et al.
# Submitted via: RipIT 3.3.3 www.suwald.com/ripit/ripit.html at Tue Oct  4 17:21:09 CEST 2005
#
DISCID=62095509
DTITLE=R.L. Burnside - Mr. Wizard
DYEAR=1997
DGENRE=Blues
TTITLE0=Over the Hill
TTITLE1=Alice Mae
TTITLE2=Georgia Women
TTITLE3=Snake Drive
TTITLE4=Rollin' and Tumblin'
TTITLE5=Out on the Road
TTITLE6=Highway 7
TTITLE7=Tribute to Fred
TTITLE8=You Gotta Move
EXTD=
EXTT0=
EXTT1=
EXTT2=
EXTT3=
EXTT4=
EXTT5=
EXTT6=
EXTT7=
EXTT8=
PLAYORDER=
